<svg viewBox="0 0 226 226" xmlns="http://www.w3.org/2000/svg" xml:space="preserve" style="fill-rule:evenodd;clip-rule:evenodd;stroke-linejoin:round;stroke-miterlimit:2"><g transform="matrix(.39732 0 0 .38123 .583 .397)"><path style="fill:none" d="M.703-1.042h566.538v590.451H.703z"/><clipPath id="a"><path d="M.703-1.042h566.538v590.451H.703z"/></clipPath><g clip-path="url(#a)"><path d="M0-102.171c23.963-.04 44.987 16.354 51.051 39.549 2.243 8.576-1.108 15.312-5.765 22.06-3.064 4.441-6.066 9.18-7.79 14.231-2.974 8.707-8.637 15.228-15.674 20.345-3.29 2.392-8.223 2.708-12.499 3.5-3.663.678-7.488.454-11.174 1.048-9.158 1.478-17.922.044-26.32-3.508-2.353-.996-4.629-2.895-6.175-4.955-5.862-7.809-11.609-15.724-17.012-23.854-4.151-6.246-3.208-13.574-2.303-20.374 3.495-26.258 24.515-47.88 53.661-48.042" style="fill:#bc6726" transform="matrix(1.37468 0 0 1.51771 231.164 284.946)"/><path d="M.666-85.135c2.42 1.582 13.259 17.253 14.678 19.804 1.832 3.292 7.82 3.201 9.054 3.96 9.589 5.897 15.15 23.365 20.851 29.324 2.282 2.385 5.071 4.132 6.655 13.262 1.566 9.02 2.4 16.264 2.961 19.416.622 3.501 3.086 5.233 6.212 4.469 3.409-.832 4.965-1.244 4.668-4.469-.712-7.749-2.942-16.296-4.098-25.062-.679-5.154-3.365-8.879-7.756-11.806-2.988-1.991-3.389-6.889-5.214-9.424-5.782-8.033-6.856-11.438-13.269-18.965-5.183-6.084-5.957-5.835-9.921-6.081-5.886-1.38-11.209-14.492-21.879-24.33-2.876-2.652-5.748-1.931-7.885.903-2.652 3.513-5.017 7.252-7.354 10.989-3.603 5.761-6.546 12.039-10.807 17.249-2.62 3.2-4.69 6.164-5.843 10.153-3.266 11.281-9.502 20.302-20.7 25.158-2.333 1.012-4.612 2.149-6.923 3.214-6.807 3.137-9.122 7.646-10.39 12.311-1.433 5.278-.474 9.012-1.91 11.436-3.107 5.243-3.793 9.933-3.82 10.915-.039 1.455.584 4.211 3.82 4.084 5.036-.198 7.767-6.049 8.851-8.645.955-2.285 2.521-17.031 5.352-19.918 6.101-6.222 10.467-4.573 19.494-10.183 5.909-3.673 9.813-9.934 12.283-14.636 2.203-4.195 3.229-9.115 3.614-10.966.329-1.581.429-5.008 1.811-5.929 2.885-1.924 4.02-1.438 6.118-5.724 2.719-5.553 5.604-11.512 7.996-14.944 1.923-2.76 2.09-5.228 3.351-5.565Z" style="fill:#786954" transform="matrix(1.37468 0 0 1.51771 331.4 335.478)"/><path d="M-25.333 21.653c-2.366-3.677-12.264-12.11-15.378-15.203-3.226-3.204-2.083-4.52-4.507-6.316-2.499-1.851-7.113-5.613-9.355-5.575-2.055.035-3.685 1.938-4.554 3.123-3.084 4.206-6.082 8.546-9.705 12.257-2.396 2.455-5.711 5.296-8.805 5.541-9.064.718-14.421 6.425-19.756 12.49-2.252 2.559-1.527 4.977 1.771 7.338 2.641 1.89 4.245 1.106 5.723-1.602 2.65-4.863 6.751-7.846 12.348-8.643 9.4-1.337 16.315-6.235 20.785-14.613 1.833-3.436 3.476-3.633 6.074-.853 4.652 4.982 9.353 9.92 13.974 14.93 1.172 1.271 2.29 2.65 3.147 4.144 4.027 7.035 6.625 4.104 8.238-.701" style="fill:#786954" transform="matrix(1.37468 0 0 1.51771 555.902 233.004)"/><path d="M11.892 28.92c6.338-5.146 7.955-5.536 11.442-9.261 1.322-1.413 3.234-2.569 4.259-4.503 1.744-3.295 4.303-8.341 4.859-9.075 2.661-3.509 4.021-1.283 6.622 2.329 3.837 5.328 5.959 9.034 9.867 14.308 1.57 2.12 3.642 5.557 6.118 6.408 3.333 1.145 4.337 1.297 7.585-.759 1.067-.676 1.138-3.823-.383-5.129-3.877-3.33-7.711-8.57-11.667-14.828C47.46 3.454 42.348-2.251 36.281-5.523c-2.273-1.226-3.782-2.991-6.788 1.196-2.42 3.373-6.588 9.454-9.103 12.737-5.736 7.49-7.91 9.086-14.713 13.663-3.324 2.236-4.674 2.692-8.025.392-5.496-3.773-11.298-6.505-15.917-7.309-2.209-.384-6.188 1.596-9.972 6.917-2.856 4.016-3.338 15.319 0 15.453 2.642.105 3.627-4.292 5.151-6.327 4.704-6.289 4.221-6.452 11.11-2.753 3.81 2.044 8.679 4.202 13.493 3.928" style="fill:#786954" transform="matrix(1.37468 0 0 1.51771 80.706 239.597)"/><path d="M-3.705-27.863C1.043-34.357.671-37.349.68-46.574c.011-11.21-3.335-23.473-4.385-26.708-1.308-4.034-2.866-5.497-6.659-5.052-3.968.464-4.253 1.662-3.735 5.052.632 4.135 6.171 22.334 6.128 26.708-.039 3.91-2.098 4.676-2.393 8.487-.667 8.618-4.371 10.524-4.655 12.917-.722 6.087-2.781 6.863-3.01 8.627-.364 2.808-3.418 11.319-3.65 13.534-.895 8.53-2.313 12.177 0 13.52 5.335 3.097 7.834-4.17 8.649-8.433 1.196-6.258 2.499-10.405 4.245-14.717 3.334-8.233 3.687-13.318 5.08-15.224Z" style="fill:#786954" transform="matrix(1.37468 0 0 1.51771 353.066 517.716)"/><path d="M-.574 70.291c.716-1.783 1.328-24.02-15.829-47.565-2.949-4.047-2.01-15.19-2.689-16.402-1.188-2.12-1.296-4.39-1.273-14.526.006-2.438-9.711-2.88-9.643 0 .06 2.566-.599 8.822-.434 12.185.621 12.728.704 19.348 10.077 30.43 2.886 3.412 5.794 11.477 6.792 15.888 2.122 9.38 1.222 17.72 3.88 19.99 3.562 3.042 7.397 4.287 9.119 0Z" style="fill:#786954" transform="matrix(1.37468 0 0 1.51771 272.965 429.488)"/><path d="M14.729 57.368c-1.351 2.458 2.986 5.78 7.791 2.884 1.93-1.162 6.928-8.921 9.785-11.649 1.924-1.837 8.534-8.145 9.575-10.26 1.136-2.306 12.545-21.951 18.79-33.174 1.069-1.922 3.376-6.239 3.043-8.223-.294-1.752-5.356-7.393-8.637-2.66-2.624 3.785-12.854 22.118-14.019 23.538-1.249 1.524-3.923 5.904-4.783 7.725-.877 1.855-2.472 6.669-3.141 7.569-2.452 3.298-3.639 3.256-7.41 7.894-5.97 7.34-7.78 10.505-10.994 16.356Z" style="fill:#786954" transform="matrix(1.37468 0 0 1.51771 126.04 406.806)"/><path d="M8.32 39.855c.135 2.209 2.35 5.494 5.928 5.274 3.2-.197 5.983-6.324 10.204-8.855 2.879-1.727 8.794-13.688 9.597-15.194 1.592-2.989 5.609-18.252 7.011-21.578.594-1.408-.15-5.007-2.173-5.521-3.619-.918-4.713.002-5.9 1.236-.955.993-2.476 3.707-2.419 5.148.262 6.602-8.662 23.184-10.604 24.913C13.436 31.087 8.124 36.65 8.32 39.855Z" style="fill:#786954" transform="matrix(1.37468 0 0 1.51771 49.563 334.513)"/><path d="M388.271 296.542c1.007 0 3.993-.243 5.105 1.538 1.974 3.164 5.159 13.089 6.218 14.963 1.142 2.021 1.926 4.285 2.19 8.056.919 13.127-1.653 26.003-1.908 33.14-.068 1.917-.076 6.251-2.788 7.448-3.112 1.374-6.229 2.287-7.167 0-1.584-3.864 3.453-38.868 1.393-43-1.124-2.255-5.811-11.428-6.608-16.83-.726-4.915 2.679-5.315 3.565-5.315Z" style="fill:#786954" transform="matrix(1.37468 0 0 1.51771 -124.657 -57.922)"/><path d="M.753-40.986C.662-43.12.444-43.702 0-48.671c-.162-1.81 1.37-7.211 0-12.848-.297-1.222-2.127-4.635-5.306-4.403-2.701.197-2.792 2.494-2.822 3.637-.166 6.404-.447 12.841-.003 19.218.663 9.52-.951 19.797-3.652 22.613-2.71 2.825-6.885 8.439-1.764 12.143 2.532 1.832 6.102-.985 8.241-2.605 2.186-1.656 2.565-5.075 4.449-13.271.565-2.455 1.748-13.589 1.61-16.799Z" style="fill:#786954" transform="matrix(1.37468 0 0 1.51771 125.844 475.302)"/><path d="M-6.443-34.874C-5.109-40.145.172-50.961.359-59.546c.138-6.369-7.831-2.594-8.274-2.095-.526.595-1.553 3.4-1.902 4.266-3.635 9.039-7.282 18.073-10.861 27.134-1.466 3.713-4.272 9.414-3.486 12.502 1.154 4.537 5.458 9.306 10.12 7.529 2.239-.854-.061-6.076 0-9.255.057-2.954 7.28-14.138 7.601-15.409Z" style="fill:#786954" transform="matrix(1.37468 0 0 1.51771 392.717 535.086)"/><path d="M2.461 29.312C1.836 30.865-.066 39.194.233 43.168c.413 5.494 1.407 10.336 7.038 10.055 3.827-.192 3.613-15.32 4.674-19.733 1.18-4.907 6.003-27.814 5.006-38.593-.476-5.141-8.086-10.933-9.68-1.644C6.93-4.758 5.776.241 5.506 3.764c-.611 7.982-.775 19.915-3.045 25.548Z" style="fill:#786954" transform="matrix(1.37468 0 0 1.51771 286.695 419.53)"/><path d="M-12.197 30.481c3.081-2.455-6.572-17.337-10.624-29.717-.649-1.982-2.265-4.407-3.859-5.427-2.441-1.563-3.927-.726-5.64 0-1.161.495-2.19 2.187-2.322 3.962-.099 1.318 2.347 5.351 3.001 7.159 2.67 7.382 5.844 15.119 10.736 21.578 2.398 3.166 4.974 5.419 8.708 2.445Z" style="fill:#786954" transform="matrix(1.37468 0 0 1.51771 490.955 395.45)"/><path d="M8.606 21.87c-1.353 3.835-1.872 3.612 2.215 5.81 3.796 2.042 6.677-2.822 7.919-5.81 1.337-3.218 2.298-7.381 3.439-9.68 1.44-2.902.909-7.399 2.331-11.833.726-2.26-1.996-7.968-5.026-7.83-3.004.138-4.783 3.252-4.975 5.667-.285 3.57.192 8.197-1.825 12.47-1.11 2.349-2.683 7.255-4.078 11.206Z" style="fill:#786954" transform="matrix(1.37468 0 0 1.51771 184.563 483.97)"/><path d="M.453-36.267c.294-2.215-2.804-4.295-4.446-4.784-1.478-.442-1.988-.17-4.566 1.102-2.896 1.43-2.726 1.782-2.834 4.851-.115 3.307.358 4.628 2.834 4.769 4.346.248 8.581-2.698 9.012-5.938Z" style="fill:#786954" transform="matrix(1.37468 0 0 1.51771 58.387 389.169)"/><path d="M324.695 198.774c3.527.623 3.54 6.183 6.131 15.125 2.037 7.033 6.708 20.926 7.054 26.336.146 2.269-.263 6.313-1.746 7.45-2.641 2.024-6.105 1.957-6.401 0-.738-4.873-2.223-10.515-2.619-11.566-2.056-5.441-7.831-32.76-7.672-33.95.472-3.528 1.05-4.138 5.253-3.395ZM437.161 214.6c3.585-.84 7.677 11.119 10.868 20.628 2.694 8.031 3.977 17.876-.845 17.633-6.012-.302-6.46-12.12-9.248-22.264-.977-3.556-3.957-6.872-3.983-9.642-.031-3.308 1.143-5.871 3.208-6.355Z" style="fill:#786954" transform="matrix(1.37468 0 0 1.51771 -112.45 -42.662)"/><path d="M0-17.876c.268-1.876-1.468-3.843-3.152-4.581-2.568-1.124-5.568.806-6.61 3.346a837.993 837.993 0 0 0-6.649 16.712c-.471 1.221-.908 2.207-1.112 3.276-.407 2.126 2.931 3.885 4.47 4.408 1.234.42 3.371-.32 4.19-1.615C-6.81.428-5.298-3.188-3.839-6.764-2.487-10.077-.47-14.581 0-17.876" style="fill:#786954" transform="matrix(1.37468 0 0 1.51771 305.766 335.953)"/><path d="M-11.102.935c-3.096 3.222.843 10.248 2.706 10.228 1.773-.02 3.811-.831 4.607-5.512.338-1.99.008-4.306-1.507-5.373-1.428-1.007-4.481-.722-5.806.657Z" style="fill:#786954" transform="matrix(1.37468 0 0 1.51771 508.342 378.958)"/><path d="M.878-10.865c-.515-2.186-3.417-4.116-6.148-4.012-2.852.109-2.819 3.165-2.827 5.611-.016 5.103-.626 12.545-1.315 17.29-.339 2.332 1.164 5.292 2.67 5.519 3.138.471 5.284.404 6.6-2.795C1.099 7.73.462 4.337.878-.536" style="fill:#786954" transform="matrix(1.37468 0 0 1.51771 383.714 320.081)"/><path d="M13.813-6.932c-1.128-1.749-9.33-14.463-11.726-15.313-3.339-1.184-5.601.249-7.171.865-2.172.852 1.106 6.357 2.434 7.391 2.669 2.077 4.993 4.834 5.816 5.971C4.283-6.476 5.695-4.006 7.163-2.36c.144.161.288.314.432.457 1.289 1.282 4.927 1.477 6.898 0 1.067-.799.15-3.742-.68-5.029Z" style="fill:#786954" transform="matrix(1.37468 0 0 1.51771 140.271 360.455)"/><path d="M0 15.861c2.852.507 3.682-2.366 3.919-3.145C4.29 11.491 1.581 8.47 0 7.722-2.359 6.606-4.524 4.257-8.999.737c-1.02-.803-3.304-1.118-3.835-1.124-3.2-.042-4.418 3.022-2.832 5.784C-13.081 9.898-2.794 15.365 0 15.861Z" style="fill:#786954" transform="matrix(1.37468 0 0 1.51771 210.755 327.128)"/><path d="M-8.118 6.284c3.634.166 3.833-1.619 5.853-3.427C.058.776 2.948-7.453 1.437-9.548c-1.562-2.166-4.867-3.973-7.381 0-1.208 1.909-4.574 7.404-4.872 11.008-.257 3.115 1.84 4.785 2.698 4.824Z" style="fill:#786954" transform="matrix(1.37468 0 0 1.51771 274.995 412.374)"/><path d="M.373 8.123C.386 6.624.112 1.539-1.046-1.568c-1.409-3.781-3.893-5.472-5.81-4.836-1.571.52-2.411 1.871-2.365 3.368.049 1.612 1.063 3.425 1.503 5.401.202.903-.152 4.414 0 5.758.246 2.167 2.179 3.556 3.448 3.653 2.874.22 4.621-1.142 4.643-3.653Z" style="fill:#786954" transform="matrix(1.37468 0 0 1.51771 171.611 397.912)"/><path d="M178.322 208.315c1.165 0 1.926 1.679 2.539 3.785.483 1.661 1.078 4.52.21 5.442-2.123 2.254-3.268 1.056-5.353 1.056-.917-.324-1.41-2.767-1.48-4.134-.303-1.21-1.243-2.625-1.243-4.14 0-2.872 3.243-2.009 5.327-2.009Z" style="fill:#786954" transform="matrix(1.37468 0 0 1.51771 -112.45 -42.662)"/><path d="M32.876 2.235c3.256-2.282 15.16-4.769 15.16-4.769s8.517-3.237 14.99-2.725c6.473.51 20.27-1.363 26.062 1.022 5.791 2.384 21.803-.852 24.869-2.045 3.066-1.192 23.336-1.022 30.15.852s22.996.852 25.381.171c2.385-.682 2.874.617 2.235 1.383-.639.767-3.449 3.386-4.216 6.58-.766 3.193-.766 5.301-1.916 6.643-1.15 1.341-4.663 3.769-10.029 1.149-5.365-2.618-12.2-2.171-19.291-1.596-7.09.575-20.439 2.534-33.556-.107-13.116-2.64-19.674-3.406-30.236-2.299-10.561 1.107-18.039.782-26.658.851-15.831.126-17.257-2.088-12.945-5.11Z" style="fill:#bd9fb9" transform="matrix(1.37468 0 0 1.51771 -2.097 304.203)"/><path d="M9.623 4.681c-.211 0-7.663-.635-8.558-1.033C.401 3.352-.464.406-.419-2.19c.024-1.375.101-2.847 1.484-3.424C3.16-6.489 4.32-4.321 6.364-3.996c4.258.678 18.463 1.334 20.209 2.143C29.165-.652 33.336-.39 33.336.097c0 .487-4.74.783-6.051 1.155-1.132.322-6.07.295-9.34 1.68-2.667 1.129-7.299 1.749-8.322 1.749Z" style="fill:#bd9fb9" transform="matrix(1.37468 0 0 1.51771 428.057 311.347)"/><path d="M228.056 268.072c6.885-2.057 19.888-4.938 28.806-6.21 4.915-.701 17.215 1.542 27.01 1.412 1.869-.024 11.741-.356 19.945-2.092 3.659-.774 12.97-1.997 16.013-2.354 6.762-.793 16.702-2.133 20.296-2.142 9.765-.026 27.41 2.301 30.391 2.142 5.977-.317 22.26-2.149 28.181-2.142 5.073.006 20.656 1.779 26.827 3.193 1.819.417 37.31-.304 45.424 1.303 5.137 1.018 15.767 2.006 15.767 3.046 0 1.041-9.128.59-15.767 1.135-2.139.175-8.602 1.974-17.278 1.85-5.478-.077-13.101-.159-19.456-.348-9.361-.278-8.782 2.59-18.695 2.702-10.376.118-13.241-2.02-18.938-2.354-1.371-.08-18.964.556-21.15.563-12.788.044-43.117-5.132-42.711 1.519.303 4.979 16.69 2.558 25.462 2.479 1.267-.011 17.86.164 30.694.717 8.605.371 15.327 1.093 15.327 1.369 0 .687-4.909 1.773-9.029 2.557-3.772.717-6.556-.111-8.88.01-4.57.238-10.22 3.04-15.611 2.661-4.696-.33-11.452-.481-13.425-.443-2.625.051-13.819 1.092-14.682 1.113-4.871.118-19.987.223-24.895-1.883-.664-.285-12.433-2.973-21.667-2.637-3.433.124-24.423 1.288-34.714 1.953-6.375.412-17.049-.443-19.195-.764-7.122-1.065-32.983-3.503-33.628-5.394-.468-1.373 11.557-.564 19.578-2.961Z" style="fill:#bd9fb8" transform="matrix(1.37468 0 0 1.51771 -146.574 -37.42)"/><path d="M173.659 931.474c-40.575 0-73.517 32.942-73.517 73.516 0 40.58 32.942 73.52 73.517 73.52 40.575 0 73.517-32.94 73.517-73.52 0-40.574-32.942-73.516-73.517-73.516Zm0 2.286c39.313 0 71.231 31.918 71.231 71.23 0 39.31-31.918 71.23-71.231 71.23-39.313 0-71.231-31.92-71.231-71.23 0-39.312 31.918-71.23 71.231-71.23Z" style="fill:#786954" transform="matrix(3.8531 0 0 4.01574 -385.153 -3741.61)"/></g></g></svg>
