<svg viewBox="0 0 621 147" xmlns="http://www.w3.org/2000/svg" xml:space="preserve" style="fill-rule:evenodd;clip-rule:evenodd;stroke-linejoin:round;stroke-miterlimit:2"><path style="fill:none" d="M1031 55h620v145.787h-620z" transform="translate(-1030.055 -54.383)"/><path d="M1085.84 85.649c-1.81 9.951-3.63 13.744-4.73 16.545-1.1 2.807-5.75 12.466-7.82 16.861a3.754 3.754 0 0 0 6.79 3.197c2.12-4.513 6.88-14.437 8.01-17.319 1.19-3.038 3.17-7.152 5.13-17.945a3.75 3.75 0 0 0-7.38-1.339Z" style="fill:#786954" transform="translate(-1030.055 -54.383)"/><path d="M1088.02 127.839c-.12-.114-.94-.903-1.52-1.544-2.34-2.564-5.6-6.594-7.05-8.175a3.754 3.754 0 0 0-5.3-.231 3.746 3.746 0 0 0-.23 5.298c1.44 1.577 4.7 5.6 7.04 8.159 1.37 1.505 2.58 2.566 3.18 2.912a3.758 3.758 0 0 0 5.12-1.4 3.76 3.76 0 0 0-1.24-5.019ZM1072.55 105.706c10.14 0 20.79.068 30.93.068 2.06 0 3.75-1.68 3.75-3.75 0-2.07-1.69-3.75-3.75-3.75-10.14 0-20.79-.068-30.93-.068-2.07 0-3.75 1.68-3.75 3.75 0 2.07 1.68 3.75 3.75 3.75Z" style="fill:#786954" transform="translate(-1030.055 -54.383)"/><path d="M1074.43 153.005c-.31.229-.58.512-.82.843a3.755 3.755 0 0 0 .92 5.223c.02.011 2.42 1.561 4.9-.464 2.25-1.843 13.68-11.641 19.03-21.714 5.11-9.618 8.77-26.379 8.77-34.937 0-2.07-1.69-3.75-3.75-3.75-2.08 0-3.75 1.68-3.75 3.75 0 7.697-3.3 22.769-7.89 31.419-4.8 9.043-15.14 17.773-17.16 19.428l-.25.202ZM1133.14 92.368c-.13.239-.28.482-.44.727-1.77 2.699-5.03 6.275-10.9 10.817a3.751 3.751 0 0 0 4.59 5.932c18.69-14.462 15.18-22.389 15.18-22.389a3.765 3.765 0 0 0-3.57-2.587h-24.64c-2.07 0-3.75 1.68-3.75 3.75 0 2.069 1.68 3.75 3.75 3.75h19.78Z" style="fill:#786954" transform="translate(-1030.055 -54.383)"/><path d="M1139.54 105.362c-7.62 9.747-8.83 14.313-25.56 21.485a3.743 3.743 0 0 0-1.97 4.925 3.747 3.747 0 0 0 4.92 1.969c18.6-7.973 20.05-12.926 28.52-23.761a3.757 3.757 0 0 0-.65-5.264 3.747 3.747 0 0 0-5.26.646Z" style="fill:#786954" transform="translate(-1034.342 -52.619)"/><path d="M1127.92 118.514c1.46 1.05 4.21 3.898 4.27 18.055.04 8.51-.58 12.406-5.91 15.061a3.498 3.498 0 1 0 3.11 6.267c7.75-3.855 9.86-9 9.8-21.358-.08-18.899-5.23-22.303-7.17-23.705a3.506 3.506 0 0 0-4.89.795 3.506 3.506 0 0 0 .79 4.885Z" style="fill:#786954" transform="translate(-1034.342 -52.619)"/><path d="M1092.77 149.175c3.28 4.66 6.32 6.973 9.33 9.664 1.44 1.287 2.97.965 4.01 0 .78-.722 1.64-2.647 0-4.038-1.21-1.023-2.56-2.484-3.55-3.531-2.03-2.132-3.53-4.134-4.69-5.296-1.65-1.645-3.35-2.767-4.86-1.557-1.67 1.346-1.25 3.323-.24 4.758Z" style="fill:#786954" transform="matrix(1.07177 0 0 1.01735 -1104.425 -58.703)"/><path d="M1185.29 112.211c0-7.856-5.79-14.234-12.93-14.234-7.13 0-12.92 6.378-12.92 14.234v25.286c0 7.856 5.79 14.233 12.92 14.233 7.14 0 12.93-6.377 12.93-14.233v-25.286Zm-6.36 0v25.286c0 3.992-2.94 7.233-6.57 7.233-3.62 0-6.56-3.241-6.56-7.233v-25.286c0-3.993 2.94-7.234 6.56-7.234 3.63 0 6.57 3.241 6.57 7.234Z" style="fill:#b16736" transform="matrix(1.10132 0 0 1 -1147.938 -54.964)"/><path d="M1211.91 129.409c-2.84 4.821-12.31 13.954-18.7 18.763-1.54 1.161-2.05 3.243-.98 4.852 1.07 1.609 3.31 2.135 4.85.978 8.32-6.221 18.03-15.821 21.56-22.657.89-1.716-.54-3.797-2.4-4.331-1.85-.535-3.27.602-4.33 2.395Z" style="fill:#b16736" transform="translate(-1062.21 -73.166)"/><path d="M1229.17 89.377v-.001h-.81c-5.11-.008-30.78-.096-33.42.002a3.49 3.49 0 0 0-3.36 3.627 3.495 3.495 0 0 0 3.62 3.368c2.61-.097 28.08-.005 33.15.003 3.61.006 4.38-3.491 4.38-3.501 0-1.931-1.57-3.5-3.5-3.5l-.06.002Z" style="fill:#786954" transform="translate(-1030.055 -54.383)"/><path d="M1209.16 86.336c-.02 7.044-.5 8.612-1.02 9.988-.39 1.067-2.73 4.377-8.22 6.838-1.76.79-2.55 2.863-1.76 4.626a3.507 3.507 0 0 0 4.63 1.761c8.25-3.698 11.32-9.18 11.92-10.784.63-1.713 1.43-3.643 1.45-12.41a3.493 3.493 0 0 0-3.49-3.509 3.505 3.505 0 0 0-3.51 3.49Z" style="fill:#786954" transform="translate(-1030.055 -54.383)"/><path d="M1201.36 109.856H1223c1.93 0 3.5-1.569 3.5-3.5 0-1.932-1.57-3.5-3.5-3.5h-21.64c-1.94 0-3.5 1.568-3.5 3.5 0 1.931 1.56 3.5 3.5 3.5ZM1194 123.166h33c1.93 0 3.5-1.569 3.5-3.5 0-1.932-1.57-3.5-3.5-3.5h-33c-1.93 0-3.5 1.568-3.5 3.5 0 1.931 1.57 3.5 3.5 3.5Z" style="fill:#786954" transform="translate(-1030.055 -54.383)"/><path d="M1224.2 115c0 3.986.04 7.69 0 10.962-.06 5.765.2 10.354-.53 13.905-1.25 6.125-6.88 11.223-15.14 11.476a3.5 3.5 0 0 0-3.39 3.606 3.491 3.491 0 0 0 3.6 3.391c12.04-.368 19.97-8.148 21.79-17.07.8-3.891.6-8.915.67-15.232.04-3.294 0-7.024 0-11.038 0-1.932-1.57-3.5-3.5-3.5s-3.5 1.568-3.5 3.5ZM1207.65 129.836c-1.55 5.379-4.79 8.283-11.49 12.736a3.5 3.5 0 0 0 3.87 5.831c8.58-5.702 12.36-9.743 14.35-16.631a3.504 3.504 0 0 0-2.4-4.331 3.495 3.495 0 0 0-4.33 2.395Z" style="fill:#786954" transform="translate(-1030.055 -54.383)"/><circle cx="1258.16" cy="122.214" r="2.853" style="fill:#786954" transform="translate(-4001.205 -344.455) scale(3.36059)"/><path d="M1285.14 101.617h65.19c1.93 0 3.5-1.568 3.5-3.5 0-1.931-1.57-3.5-3.5-3.5h-65.19c-1.93 0-3.5 1.569-3.5 3.5 0 1.932 1.57 3.5 3.5 3.5Z" style="fill:#786954" transform="translate(-1030.055 -54.383)"/><path d="M1309.39 85.535s-1.94 11.502-6.3 19.108c-4.65 8.113-17.19 19.58-17.19 19.58a3.756 3.756 0 0 0-.22 5.299 3.754 3.754 0 0 0 5.3.219s13.55-12.543 18.61-21.368c4.93-8.593 7.2-21.566 7.2-21.566a3.753 3.753 0 0 0-3.06-4.332 3.765 3.765 0 0 0-4.34 3.06ZM1306.43 124.834h29.78c2.07 0 3.75-1.68 3.75-3.75 0-2.069-1.68-3.75-3.75-3.75h-29.78a3.752 3.752 0 0 0-3.75 3.75c0 2.07 1.68 3.75 3.75 3.75Z" style="fill:#786954" transform="translate(-1030.055 -54.383)"/><path d="M1330.5 121.142c-.12 13.568-4.46 21.274-12.44 29.603a3.748 3.748 0 0 0 .12 5.302 3.75 3.75 0 0 0 5.3-.116c8.69-9.073 13.65-17.537 14.42-31.455.06-1.057.09-2.145.1-3.267a3.745 3.745 0 0 0-3.71-3.783 3.757 3.757 0 0 0-3.79 3.716Z" style="fill:#786954" transform="translate(-1030.055 -54.383)"/><path d="m1285.69 158.625 63.28-.002c2.07 0 3.75-1.681 3.75-3.75 0-2.07-1.68-3.75-3.75-3.75l-63.28.002c-2.07 0-3.75 1.68-3.75 3.75 0 2.07 1.68 3.75 3.75 3.75ZM1388.65 90.213c3.49 5.725 6.18 9.39 11.05 13.428a3.503 3.503 0 0 0 4.93-.462 3.492 3.492 0 0 0-.46-4.928c-4.23-3.502-6.51-6.716-9.54-11.681a3.502 3.502 0 0 0-4.81-1.167 3.506 3.506 0 0 0-1.17 4.81ZM1379.6 113.807h16.53c1.94 0 3.5-1.569 3.5-3.5 0-1.932-1.56-3.5-3.5-3.5h-16.53c-1.93 0-3.5 1.568-3.5 3.5 0 1.931 1.57 3.5 3.5 3.5Z" style="fill:#786954" transform="translate(-1030.055 -54.383)"/><path d="M1392.89 108.979c-2.74 6.685-5.63 11.577-10.64 17.11a3.492 3.492 0 0 0 .25 4.944 3.497 3.497 0 0 0 4.94-.245c5.61-6.197 8.86-11.668 11.93-19.154a3.501 3.501 0 0 0-6.48-2.655Z" style="fill:#786954" transform="translate(-1030.055 -54.383)"/><path d="m1384.83 131.939 11.43.033a3.505 3.505 0 0 0 3.51-3.489 3.507 3.507 0 0 0-3.49-3.511l-11.43-.033a3.505 3.505 0 0 0-3.51 3.489 3.507 3.507 0 0 0 3.49 3.511Z" style="fill:#786954" transform="translate(-1030.055 -54.383)"/><path d="M1392.89 129.391c.66 2.445.16 5.158-.95 7.892-1.96 4.791-5.85 9.581-10.26 13.359a3.496 3.496 0 0 0-.38 4.935 3.508 3.508 0 0 0 4.94.38c5.26-4.515 9.83-10.299 12.18-16.025 1.74-4.278 2.26-8.552 1.22-12.378a3.494 3.494 0 0 0-4.29-2.459 3.495 3.495 0 0 0-2.46 4.296Z" style="fill:#786954" transform="translate(-1030.055 -54.383)"/><path d="M1375.46 157.836h23.9c1.93 0 3.5-1.568 3.5-3.5 0-1.931-1.57-3.5-3.5-3.5h-23.9c-1.93 0-3.5 1.569-3.5 3.5 0 1.932 1.57 3.5 3.5 3.5ZM1374.54 139.547l4.8 6.086a3.507 3.507 0 0 0 4.92.58 3.514 3.514 0 0 0 .58-4.916c-1.6-2.029-3.21-4.057-4.8-6.086a3.508 3.508 0 0 0-4.92-.579 3.495 3.495 0 0 0-.58 4.915ZM1380.16 86.422c-3.33 8.064-4.38 11.83-11.05 19.491a3.507 3.507 0 0 0 .34 4.938 3.505 3.505 0 0 0 4.94-.341c7.35-8.435 8.58-12.539 12.24-21.418a3.496 3.496 0 0 0-1.9-4.571 3.501 3.501 0 0 0-4.57 1.901ZM1409.2 96.94h31.48c1.93 0 3.5-1.568 3.5-3.5 0-1.931-1.57-3.5-3.5-3.5h-31.48c-1.93 0-3.5 1.569-3.5 3.5 0 1.932 1.57 3.5 3.5 3.5Z" style="fill:#786954" transform="translate(-1030.055 -54.383)"/><path d="M1419.23 85.544c-.67 6.159-4.35 12.529-10.68 17.207a3.502 3.502 0 0 0-.73 4.895 3.496 3.496 0 0 0 4.89.735c8.09-5.976 12.63-14.214 13.48-22.083a3.5 3.5 0 1 0-6.96-.754Z" style="fill:#786954" transform="translate(-1030.055 -54.383)"/><path d="M1424.28 151.291c5.23 0 11.12-.313 15.58-6.362 1.05-1.418 1.91-4.348 2.26-7.998.7-7.298-.22-17.709-1.9-21.531-3.6-8.247-10.57-8.609-15.94-8.609-5.37 0-12.22.096-15.94 8.609-1.68 3.822-2.59 14.233-1.9 21.531.35 3.65 1.21 6.58 2.26 7.998 4.32 5.86 10.35 6.362 15.58 6.362Zm0-6.5c-3.42 0-7.53.11-10.35-3.72-.25-.334-.37-.89-.53-1.556-.38-1.627-.59-3.755-.67-6.051-.2-5.798.35-12.687 1.56-15.459 2.27-5.189 6.72-4.714 9.99-4.714 3.28 0 7.79-.313 9.99 4.714 1.21 2.772 1.76 9.661 1.56 15.459-.08 2.296-.29 4.424-.67 6.051-.16.666-.28 1.222-.53 1.556-2.91 3.953-6.93 3.72-10.35 3.72Z" style="fill:#786954" transform="translate(-1029.393 -54.424)"/><path d="M1411.35 128.654c5.34-1.448 14.54-5.421 20.56-8.994 2.9-1.724 5.09-3.434 6.04-4.727.91-1.22.65-2.943-.57-3.847a2.756 2.756 0 0 0-3.85.573c-.68.929-2.35 2.034-4.43 3.272-5.62 3.336-14.21 7.063-19.19 8.415a2.751 2.751 0 0 0 1.44 5.308ZM1411.23 138.683c8.1-1.816 19.15-6.712 29.27-13.957a2.748 2.748 0 0 0 .63-3.837 2.744 2.744 0 0 0-3.83-.635c-9.44 6.756-19.72 11.369-27.27 13.063a2.752 2.752 0 0 0-2.08 3.285 2.744 2.744 0 0 0 3.28 2.081ZM1438.03 130.573c-6.2 4.203-14.88 9.047-24.52 10.976a2.5 2.5 0 0 0 .98 4.902c10.36-2.071 19.68-7.227 26.34-11.738a2.49 2.49 0 0 0 .67-3.472 2.498 2.498 0 0 0-3.47-.668Z" style="fill:#786954" transform="translate(-1030.055 -54.383)"/><path d="M1415.09 146.812c-1.72 3.453-3.63 5.166-6.99 6.892a2.502 2.502 0 0 0-1.09 3.366 2.505 2.505 0 0 0 3.37 1.082c4.43-2.273 6.91-4.557 9.18-9.104a2.499 2.499 0 0 0-1.11-3.354 2.507 2.507 0 0 0-3.36 1.118Z" style="fill:#786954" transform="translate(-1030.055 -54.383)"/><path d="M1419.56 149.048c-2.27 4.547-4.75 6.831-9.18 9.104-1.23.63-2.74.146-3.37-1.082a2.502 2.502 0 0 1 1.09-3.366c3.36-1.726 5.27-3.439 6.99-6.892a2.507 2.507 0 0 1 3.36-1.118 2.499 2.499 0 0 1 1.11 3.354Z" style="fill:#786954" transform="matrix(-1 0 0 1 1820.275 -54.383)"/><path d="M1460.05 114.508a3.753 3.753 0 0 0-2.44 4.585 3.761 3.761 0 0 0 4.64 2.586c1.49-.423 4.02-2.259 6.83-5.427 5.12-5.786 12.22-16.239 17.34-25.89a3.752 3.752 0 0 0-6.63-3.513c-4.83 9.101-11.49 18.974-16.33 24.431-1.37 1.555-3.24 3.095-3.41 3.228ZM1499.14 90.07c8.47 12.284 17.51 24.58 24.26 28.329a3.752 3.752 0 0 0 5.1-1.457 3.748 3.748 0 0 0-1.46-5.099c-6.13-3.408-14.02-14.863-21.72-26.029a3.756 3.756 0 0 0-5.22-.959 3.759 3.759 0 0 0-.96 5.215ZM1506.09 144.56c2.27 2.941 7.41 9.477 10.52 12.374a3.752 3.752 0 0 0 5.3-.184 3.756 3.756 0 0 0-.18-5.3c-3.56-3.318-8.4-10.229-10.7-12.853-.89-1.022-1.67-1.62-2.11-1.855a3.977 3.977 0 0 0-1.92-.492c-.24 0-1.04.054-2.19.586-3 1.384-15.96 8.49-25.43 11.778-1.26.438-2.45.806-3.53 1.069.41-.752.88-1.546 1.35-2.266 6.1-9.266 17.98-23.328 17.98-23.328.58-.676.89-1.534.89-2.419V110c0-2.07-1.68-3.75-3.75-3.75-2.07 0-3.75 1.68-3.75 3.75v10.31c-3.43 4.127-15.88 19.283-20.03 26.932-1.23 2.252-1.77 4.119-1.79 5.246-.02 1.738.69 2.917 1.67 3.697.96.77 2.32 1.314 4.07 1.408 2.25.12 5.58-.585 9.35-1.893 8.36-2.902 19.37-8.677 24.25-11.14Z" style="fill:#786954" transform="translate(-1030.055 -54.383)"/><path d="M1553.9 86.025c-2.34 7.438-7.28 15.389-10.82 18.724a3.256 3.256 0 0 0-.13 4.594 3.246 3.246 0 0 0 4.59.135c4.08-3.841 9.87-12.938 12.56-21.503a3.248 3.248 0 0 0-2.12-4.075 3.254 3.254 0 0 0-4.08 2.125Z" style="fill:#786954" transform="translate(-1031.503 -54.894)"/><path d="M1562.15 90.198c2.61 5.232 6.59 10.125 10.67 12.644a3.248 3.248 0 1 0 3.41-5.53c-3.2-1.979-6.21-5.912-8.27-10.022a3.248 3.248 0 1 0-5.81 2.908Z" style="fill:#786954" transform="translate(-1030.55 -52.343)"/><path d="M1551.99 113.888h9.93a44.783 44.783 0 0 0-2.11 3.532c-1.96 3.65-3.3 7.749-2.88 11.133a3.254 3.254 0 0 0 3.63 2.819 3.248 3.248 0 0 0 2.82-3.631c-.28-2.226.87-4.85 2.16-7.251 2.25-4.213 5.29-7.722 5.29-7.722a3.257 3.257 0 0 0 .51-3.479 3.26 3.26 0 0 0-2.96-1.901h-16.39a3.254 3.254 0 0 0-3.25 3.25c0 1.794 1.46 3.25 3.25 3.25Z" style="fill:#786954" transform="translate(-1030.055 -54.383)"/><path d="M1547.16 126.79h27.91c1.51 0 2.75-1.233 2.75-2.75 0-1.518-1.24-2.75-2.75-2.75h-27.91a2.75 2.75 0 1 0 0 5.5Z" style="fill:#786954" transform="translate(-1030.092 -54.226)"/><path d="M1561.28 134.378c-4.73.003-7.34 1.07-8.87 2.989-1.48 1.861-2.11 4.863-2.11 9.725 0 3.978.17 6.926 1.42 8.911 1.33 2.106 3.92 3.667 9.59 3.601 4.34-.05 6.86-.696 8.37-2.342 1.5-1.627 2.32-4.547 2.32-10.17 0-5.358-.84-8.36-2.36-10.112-1.58-1.807-4.13-2.605-8.36-2.602Zm.01 6c1.37-.001 2.5.048 3.4.265.46.11.84.227 1.1.527.29.337.42.837.55 1.477.21 1.144.28 2.6.28 4.445 0 1.949-.05 3.448-.26 4.599-.1.562-.17.996-.42 1.271-.25.261-.6.317-1.04.403-.95.187-2.15.222-3.64.239-1.49.018-2.66-.066-3.6-.278-.75-.169-1.27-.331-1.54-.771-.26-.412-.31-.95-.37-1.569-.1-1.113-.08-2.412-.08-3.894 0-1.696.05-3.082.24-4.205.1-.643.22-1.164.52-1.535.26-.329.65-.483 1.15-.622.95-.265 2.17-.351 3.71-.352Z" style="fill:#786954" transform="matrix(1.11643 0 0 1 -1212.346 -55.919)"/><path d="M1596.45 85.371c-.15 2.579-.65 4.047-2.07 6.392a3.244 3.244 0 0 0 1.1 4.462c1.54.928 3.54.435 4.46-1.101 2.08-3.433 2.78-5.594 3-9.371a3.246 3.246 0 0 0-3.05-3.435 3.258 3.258 0 0 0-3.44 3.053Z" style="fill:#786954" transform="translate(-1030.055 -54.383)"/><path d="M1584.52 104.311c1.36-2.226 2.07-4.847 2.43-6.798h21.98c-.47.99-1.11 2.015-1.99 2.814a3.003 3.003 0 0 0 4.06 4.426c3.83-3.507 4.97-9.724 4.97-9.724a3.002 3.002 0 0 0-.65-2.446 3.017 3.017 0 0 0-2.3-1.07h-28.69a3 3 0 0 0-3 2.87s-.14 3.883-1.93 6.793a3.008 3.008 0 0 0 .99 4.126c1.42.865 3.26.421 4.13-.991Z" style="fill:#786954" transform="translate(-1030.055 -54.383)"/><path d="M1583.26 111.1v43.837c0 1.794 1.46 3.25 3.25 3.25 1.8 0 3.25-1.456 3.25-3.25V111.1c0-1.794-1.45-3.25-3.25-3.25a3.254 3.254 0 0 0-3.25 3.25Z" style="fill:#786954" transform="translate(-1031.58 -54.383)"/><path d="M1595.17 114.892h13.96c-.16 1.075-.52 2.39-1.32 3.741-1.48 2.483-2.49 3.761-7.73 5.463a3.253 3.253 0 0 0-2.09 4.095 3.254 3.254 0 0 0 4.1 2.087c7.29-2.369 9.26-4.871 11.31-8.328 3.36-5.662 2.09-11.009 2.09-11.009a3.251 3.251 0 0 0-3.17-2.549h-17.15a3.254 3.254 0 0 0-3.25 3.25c0 1.793 1.46 3.25 3.25 3.25Z" style="fill:#786954" transform="translate(-1031.58 -54.732)"/><path d="M1594.75 114.892h14.98c-.14 3.662-1.71 10.229-10.65 13.134a3.245 3.245 0 0 0-2.09 4.095 3.247 3.247 0 0 0 4.09 2.087c18.59-6.038 14.87-23.225 14.87-23.225a3.246 3.246 0 0 0-3.18-2.591h-18.02c-1.8 0-3.25 1.456-3.25 3.25 0 1.793 1.45 3.25 3.25 3.25Z" style="fill:#786954" transform="translate(-1031.58 -30.528)"/></svg>